<svg width="38" height="38" xmlns="http://www.w3.org/2000/svg"><g fill="none" fill-rule="evenodd"><circle fill="#ED8D21" cx="19" cy="19" r="19"/><path d="M27 12H11c-1.101 0-2 .9-2 2v10c0 1.1.899 2 2 2h16c1.1 0 2-.9 2-2V14c0-1.1-.9-2-2-2zm0 12H11v-6h16v6zm0-9H11v-1h16v1zm-14 5.1v.6h.6v-.6H13zm3.6 1.199v.601h1.2v-.601h.6v-.6h.6v-.6h-1.2v.6h-.601v.6H16.6zm2.4.601v-.601h-.601v.601H19zm-3 0v-.601h-1.2v.601H16zm.6-1.201h.6v-.6H16v1.199h.6v-.599zm-2.401.6h.601v-.6h.6v-.6h-1.2v.6h-.6v.6H13v.601h1.199v-.601z" fill-rule="nonzero" fill="#FFF"/></g></svg>