<svg width="38" height="38" xmlns="http://www.w3.org/2000/svg"><g fill="none" fill-rule="evenodd"><circle fill="#ED8D21" cx="19" cy="19" r="19"/><path d="M26.004 14h-5.008A1.996 1.996 0 0019 15.996v11.008c0 1.102.894 1.996 1.996 1.996h5.008A1.996 1.996 0 0028 27.004V15.996A1.996 1.996 0 0026.004 14zM23.5 28c-.69 0-1.25-.447-1.25-1 0-.553.56-1 1.25-1s1.25.447 1.25 1c0 .553-.56 1-1.25 1zm2.5-3h-5v-9h5v9zm-9 0h-5V11h12v1h2v-1c0-1.101-.9-2-2-2H12c-1.1 0-2 .899-2 2v16c0 1.1.9 2 2 2h5.555A3.95 3.95 0 0117 27.003V25z" fill-rule="nonzero" fill="#FFF"/></g></svg>