<svg height="297" width="256" xmlns="http://www.w3.org/2000/svg"><g fill="none" fill-rule="evenodd" transform="rotate(-6 243.027 56.135)"><path d="M42.2 25.723C19.296 59.438-21.146 179.41 16.132 230.398c37.277 50.989 159.613 54.973 198.043 0 38.43-54.972-13.23-171.25-34.309-204.675C158.79-7.703 65.102-7.992 42.2 25.723z" fill="#fa8b49" stroke="#1d1d1d" stroke-width="23"/><path d="M205.857 96.928s18.254 67.63-24.944 117.454C137.716 264.206 46.35 254.517 46.35 254.517l77.076 16.895 87.728-37.175s10.684-23.049 11.476-25.008 7.924-38.76 7.924-38.76l-9.02-33.163z" fill="#de7333"/><path d="M42.2 25.723C19.296 59.438-21.146 179.41 16.132 230.398c37.277 50.989 159.613 54.973 198.043 0 38.43-54.972-13.23-171.25-34.309-204.675C158.79-7.703 65.102-7.992 42.2 25.723z" stroke="#1d1d1d" stroke-width="23"/><circle cx="60.511" cy="120.291" fill="#1d1d1d" r="11.5"/><circle cx="164.511" cy="120.291" fill="#1d1d1d" r="11.5"/><path d="M89.011 144.79s23.117 14.843 46.234 0" stroke="#1d1d1d" stroke-linecap="round" stroke-width="12"/></g></svg>