<svg width="187" height="52" xmlns="http://www.w3.org/2000/svg"><path d="M15.14 31.494a13.34 13.34 0 0 1-2.951-.328c-.964-.219-1.747-.487-2.35-.806v12.98L.984 44.562V2.193H7.61l.843 3.044a12.858 12.858 0 0 1 4.066-2.715c1.546-.657 3.243-.985 5.09-.985 1.848 0 3.535.338 5.06 1.015a10.46 10.46 0 0 1 3.856 2.894c1.045 1.253 1.858 2.775 2.44 4.565.583 1.79.874 3.78.874 5.968 0 2.466-.382 4.664-1.145 6.594-.763 1.93-1.807 3.55-3.132 4.863a13.536 13.536 0 0 1-4.67 3.014c-1.786.696-3.704 1.044-5.752 1.044zm-.06-23.393c-1.204 0-2.269.279-3.192.836-.924.557-1.607 1.114-2.049 1.67v13.13c1.004.875 2.39 1.312 4.157 1.312a6.5 6.5 0 0 0 2.41-.477c.803-.318 1.516-.826 2.138-1.522.623-.696 1.135-1.601 1.537-2.715.401-1.114.602-2.487.602-4.118 0-2.267-.482-4.187-1.446-5.758-.964-1.572-2.35-2.358-4.157-2.358zM35.864 4.7c1.646-.955 3.504-1.72 5.572-2.298a23.546 23.546 0 0 1 6.356-.865c3.574 0 6.446.855 8.614 2.566 2.169 1.71 3.253 4.436 3.253 8.176v18.559h-6.807l-.783-2.865h-.241c-.803 1.035-1.918 1.88-3.344 2.537-1.425.656-3.102.984-5.03.984-1.646 0-3.082-.238-4.307-.716-1.225-.477-2.239-1.114-3.042-1.91a7.974 7.974 0 0 1-1.838-2.834 9.622 9.622 0 0 1-.632-3.491c0-1.671.371-3.103 1.114-4.297.743-1.193 1.747-2.168 3.012-2.924 1.266-.756 2.751-1.313 4.458-1.67 1.707-.359 3.524-.538 5.452-.538h3.012v-1.551c0-1.075-.381-1.9-1.144-2.477-.763-.577-1.848-.865-3.253-.865-1.205 0-2.39.179-3.555.537-1.164.358-2.45.935-3.855 1.73L35.864 4.7zm14.88 13.785l-1.988.06c-1.125.04-2.069.159-2.832.358-.763.199-1.375.447-1.837.746-.462.298-.793.656-.994 1.074a2.928 2.928 0 0 0-.301 1.283c0 1.233.371 2.079 1.114 2.536.743.458 1.596.686 2.56.686s1.838-.278 2.62-.835c.784-.557 1.336-1.174 1.658-1.85v-4.058zm29.578 13.01c-1.004 0-1.988-.11-2.952-.329-.964-.219-1.747-.487-2.35-.806v12.997l-8.855 1.206V2.193h6.627l.843 3.044a12.858 12.858 0 0 1 4.067-2.715c1.546-.657 3.243-.985 5.09-.985s3.534.338 5.06 1.015a10.46 10.46 0 0 1 3.856 2.894c1.044 1.253 1.857 2.775 2.44 4.565.582 1.79.873 3.78.873 5.968 0 2.466-.381 4.664-1.144 6.594-.764 1.93-1.808 3.55-3.133 4.863a13.536 13.536 0 0 1-4.669 3.014c-1.787.696-3.705 1.044-5.753 1.044zM80.262 8.1c-1.205 0-2.27.279-3.193.836-.924.557-1.606 1.114-2.048 1.67v13.13c1.004.875 2.39 1.312 4.157 1.312a6.5 6.5 0 0 0 2.41-.477c.802-.318 1.515-.826 2.138-1.522.622-.696 1.134-1.601 1.536-2.715.402-1.114.602-2.487.602-4.118 0-2.267-.482-4.187-1.445-5.758-.964-1.572-2.35-2.358-4.157-2.358zm20.783-3.4c1.647-.955 3.504-1.72 5.573-2.298a23.546 23.546 0 0 1 6.355-.865c3.574 0 6.446.855 8.615 2.566 2.168 1.71 3.253 4.436 3.253 8.176v18.559h-6.808l-.783-2.865h-.24c-.804 1.035-1.918 1.88-3.344 2.537-1.426.656-3.103.984-5.03.984-1.647 0-3.083-.238-4.308-.716-1.224-.477-2.239-1.114-3.042-1.91a7.974 7.974 0 0 1-1.837-2.834 9.622 9.622 0 0 1-.633-3.491c0-1.671.372-3.103 1.115-4.297.743-1.193 1.747-2.168 3.012-2.924 1.265-.756 2.75-1.313 4.458-1.67 1.707-.359 3.524-.538 5.452-.538h3.012v-1.551c0-1.075-.382-1.9-1.145-2.477s-1.847-.865-3.253-.865c-1.205 0-2.39.179-3.554.537-1.165.358-2.45.935-3.856 1.73L101.045 4.7zm14.88 13.785l-1.988.06c-1.125.04-2.068.159-2.831.358-.763.199-1.376.447-1.838.746-.462.298-.793.656-.994 1.074-.2.418-.301.845-.301 1.283 0 1.233.372 2.079 1.115 2.536.743.458 1.596.686 2.56.686s1.837-.278 2.62-.835c.783-.557 1.336-1.174 1.657-1.85v-4.058zm11.687-16.291h9.759l4.759 12.77 1.928 6.982h.24l1.808-7.101 4.157-12.651h9.096l-10.422 29.18a41.318 41.318 0 0 1-1.988 4.775 22.727 22.727 0 0 1-2.8 4.356c-1.105 1.353-2.44 2.586-4.007 3.7-1.566 1.114-3.454 2.03-5.663 2.745l-3.674-6.862c2.37-.836 4.327-2.03 5.873-3.581 1.546-1.552 2.58-3.342 3.103-5.37l.12-.478-12.29-28.465zM163.154 4.7c1.647-.955 3.504-1.72 5.573-2.298a23.546 23.546 0 0 1 6.355-.865c3.575 0 6.446.855 8.615 2.566 2.168 1.71 3.253 4.436 3.253 8.176v18.559h-6.808l-.783-2.865h-.24c-.804 1.035-1.918 1.88-3.344 2.537-1.426.656-3.102.984-5.03.984-1.647 0-3.083-.238-4.307-.716-1.225-.477-2.24-1.114-3.043-1.91a7.974 7.974 0 0 1-1.837-2.834 9.622 9.622 0 0 1-.633-3.491c0-1.671.372-3.103 1.115-4.297.743-1.193 1.747-2.168 3.012-2.924 1.265-.756 2.751-1.313 4.458-1.67 1.707-.359 3.524-.538 5.452-.538h3.012v-1.551c0-1.075-.382-1.9-1.145-2.477s-1.847-.865-3.253-.865c-1.205 0-2.39.179-3.554.537-1.165.358-2.45.935-3.856 1.73L163.154 4.7zm14.88 13.785l-1.988.06c-1.124.04-2.068.159-2.831.358-.763.199-1.376.447-1.838.746-.462.298-.793.656-.994 1.074-.2.418-.3.845-.3 1.283 0 1.233.37 2.079 1.114 2.536.743.458 1.596.686 2.56.686s1.837-.278 2.62-.835c.784-.557 1.336-1.174 1.657-1.85v-4.058z" fill="#E58C16"/></svg>