<svg width="149" height="37" xmlns="http://www.w3.org/2000/svg"><path d="M12.064 24.528c-.8 0-1.584-.088-2.352-.264-.768-.176-1.392-.392-1.872-.648v10.44l-7.056.984V.96h5.28l.672 2.448a10.24 10.24 0 0 1 3.24-2.184C11.208.696 12.56.432 14.032.432s2.816.272 4.032.816a8.343 8.343 0 0 1 3.072 2.328c.832 1.008 1.48 2.232 1.944 3.672.464 1.44.696 3.04.696 4.8 0 1.984-.304 3.752-.912 5.304-.608 1.552-1.44 2.856-2.496 3.912a10.775 10.775 0 0 1-3.72 2.424c-1.424.56-2.952.84-4.584.84zm-.048-18.816c-.96 0-1.808.224-2.544.672-.736.448-1.28.896-1.632 1.344v10.56c.8.704 1.904 1.056 3.312 1.056.64 0 1.28-.128 1.92-.384a4.494 4.494 0 0 0 1.704-1.224c.496-.56.904-1.288 1.224-2.184.32-.896.48-2 .48-3.312 0-1.824-.384-3.368-1.152-4.632-.768-1.264-1.872-1.896-3.312-1.896zm16.56-2.736c1.312-.768 2.792-1.384 4.44-1.848A18.596 18.596 0 0 1 38.08.432c2.848 0 5.136.688 6.864 2.064 1.728 1.376 2.592 3.568 2.592 6.576V24h-5.424l-.624-2.304h-.192c-.64.832-1.528 1.512-2.664 2.04-1.136.528-2.472.792-4.008.792-1.312 0-2.456-.192-3.432-.576-.976-.384-1.784-.896-2.424-1.536a6.42 6.42 0 0 1-1.464-2.28 7.805 7.805 0 0 1-.504-2.808c0-1.344.296-2.496.888-3.456a7.038 7.038 0 0 1 2.4-2.352c1.008-.608 2.192-1.056 3.552-1.344a20.94 20.94 0 0 1 4.344-.432h2.4V8.496c0-.864-.304-1.528-.912-1.992-.608-.464-1.472-.696-2.592-.696-.96 0-1.904.144-2.832.432-.928.288-1.952.752-3.072 1.392l-2.4-4.656zm11.856 11.088l-1.584.048c-.896.032-1.648.128-2.256.288-.608.16-1.096.36-1.464.6-.368.24-.632.528-.792.864-.16.336-.24.68-.24 1.032 0 .992.296 1.672.888 2.04.592.368 1.272.552 2.04.552s1.464-.224 2.088-.672c.624-.448 1.064-.944 1.32-1.488v-3.264zM64 24.528c-.8 0-1.584-.088-2.352-.264-.768-.176-1.392-.392-1.872-.648V34.07l-7.056.97V.96H58l.672 2.448a10.24 10.24 0 0 1 3.24-2.184c1.232-.528 2.584-.792 4.056-.792s2.816.272 4.032.816a8.343 8.343 0 0 1 3.072 2.328c.832 1.008 1.48 2.232 1.944 3.672.464 1.44.696 3.04.696 4.8 0 1.984-.304 3.752-.912 5.304-.608 1.552-1.44 2.856-2.496 3.912a10.775 10.775 0 0 1-3.72 2.424c-1.424.56-2.952.84-4.584.84zm-.048-18.816c-.96 0-1.808.224-2.544.672-.736.448-1.28.896-1.632 1.344v10.56c.8.704 1.904 1.056 3.312 1.056.64 0 1.28-.128 1.92-.384a4.494 4.494 0 0 0 1.704-1.224c.496-.56.904-1.288 1.224-2.184.32-.896.48-2 .48-3.312 0-1.824-.384-3.368-1.152-4.632-.768-1.264-1.872-1.896-3.312-1.896zm16.56-2.736c1.312-.768 2.792-1.384 4.44-1.848a18.596 18.596 0 0 1 5.064-.696c2.848 0 5.136.688 6.864 2.064 1.728 1.376 2.592 3.568 2.592 6.576V24h-5.424l-.624-2.304h-.192c-.64.832-1.528 1.512-2.664 2.04-1.136.528-2.472.792-4.008.792-1.312 0-2.456-.192-3.432-.576-.976-.384-1.784-.896-2.424-1.536a6.42 6.42 0 0 1-1.464-2.28 7.805 7.805 0 0 1-.504-2.808c0-1.344.296-2.496.888-3.456a7.038 7.038 0 0 1 2.4-2.352c1.008-.608 2.192-1.056 3.552-1.344a20.94 20.94 0 0 1 4.344-.432h2.4V8.496c0-.864-.304-1.528-.912-1.992-.608-.464-1.472-.696-2.592-.696-.96 0-1.904.144-2.832.432-.928.288-1.952.752-3.072 1.392l-2.4-4.656zm11.856 11.088l-1.584.048c-.896.032-1.648.128-2.256.288-.608.16-1.096.36-1.464.6-.368.24-.632.528-.792.864-.16.336-.24.68-.24 1.032 0 .992.296 1.672.888 2.04.592.368 1.272.552 2.04.552s1.464-.224 2.088-.672c.624-.448 1.064-.944 1.32-1.488v-3.264zM101.68.96h7.776l3.792 10.272 1.536 5.616h.192l1.44-5.712L119.728.96h7.248l-8.304 23.472a33.41 33.41 0 0 1-1.584 3.84 18.302 18.302 0 0 1-2.232 3.504c-.88 1.088-1.944 2.08-3.192 2.976-1.248.896-2.752 1.632-4.512 2.208l-2.928-5.52c1.888-.672 3.448-1.632 4.68-2.88 1.232-1.248 2.056-2.688 2.472-4.32l.096-.384L101.68.96zM130 2.976c1.312-.768 2.792-1.384 4.44-1.848a18.596 18.596 0 0 1 5.064-.696c2.848 0 5.136.688 6.864 2.064 1.728 1.376 2.592 3.568 2.592 6.576V24h-5.424l-.624-2.304h-.192c-.64.832-1.528 1.512-2.664 2.04-1.136.528-2.472.792-4.008.792-1.312 0-2.456-.192-3.432-.576-.976-.384-1.784-.896-2.424-1.536a6.42 6.42 0 0 1-1.464-2.28 7.805 7.805 0 0 1-.504-2.808c0-1.344.296-2.496.888-3.456a7.038 7.038 0 0 1 2.4-2.352c1.008-.608 2.192-1.056 3.552-1.344a20.94 20.94 0 0 1 4.344-.432h2.4V8.496c0-.864-.304-1.528-.912-1.992-.608-.464-1.472-.696-2.592-.696-.96 0-1.904.144-2.832.432-.928.288-1.952.752-3.072 1.392L130 2.976zm11.856 11.088l-1.584.048c-.896.032-1.648.128-2.256.288-.608.16-1.096.36-1.464.6-.368.24-.632.528-.792.864-.16.336-.24.68-.24 1.032 0 .992.296 1.672.888 2.04.592.368 1.272.552 2.04.552s1.464-.224 2.088-.672c.624-.448 1.064-.944 1.32-1.488v-3.264z" fill="#ED8D21" fill-rule="evenodd"/></svg>