<svg width="37" height="37" xmlns="http://www.w3.org/2000/svg"><g fill="none" fill-rule="evenodd"><circle fill="#ED8D21" cx="18.5" cy="18.5" r="18.5"/><path d="M25.64 11.634L7.984 17.856c-.284.1-.347.345-.01.479l3.796 1.521 2.25.901 10.984-8.066c.148-.108.318.095.211.211l-7.871 8.513v.002l-.452.503.599.322 4.982 2.682c.291.156.668.027.752-.334l2.906-12.525c.079-.343-.148-.552-.491-.431zM14 26.162c0 .246.139.315.331.141.251-.229 2.85-2.561 2.85-2.561L14 22.098v4.064z" fill="#FFF" fill-rule="nonzero"/></g></svg>