<svg width="195" height="44" xmlns="http://www.w3.org/2000/svg"><g fill="#4B5057" fill-rule="evenodd"><text font-family="Edmondsans-Bold, Edmondsans" font-size="48" font-weight="bold"><tspan x="44" y="36">huddle</tspan></text><path d="M30.968 37.898c-.108.331-.365.698-.786.821-.304.09-10.366 3.021-10.676 3.103-.886.237-1.502.063-1.906-.296-.616-.546-7.731-5.415-16.707-5.875-.96-.048-.49-3.707 2.253-3.707 1.88 0 7.374 1.374 8.037.705.512-.517.745-3.57-1.392-8.898l-4.297-10.71a1.99 1.99 0 0 1 1.092-2.582 1.967 1.967 0 0 1 2.567 1.098s3.383 8.432 3.751 9.346c.365.912.814 1.258 1.303 1.068.437-.167.527-.46.263-1.347L10.605 9.17a1.984 1.984 0 0 1 1.232-2.516 1.966 1.966 0 0 1 2.503 1.239l3.675 10.89c.325.958.67 1.46 1.213 1.228.327-.139.304-.642.217-1.081l-2.58-10.395a1.985 1.985 0 0 1 1.438-2.407 1.972 1.972 0 0 1 2.39 1.446l2.38 9.58c.348 1.407.668 1.915 1.221 1.776.565-.139.538-.606.461-.992l-1.647-8.223a1.803 1.803 0 0 1 1.405-2.124 1.791 1.791 0 0 1 2.108 1.411l1.79 8.951.003.002v.002l1.073 5.368a23.2 23.2 0 0 0 .85 2.9c2.05 5.49.98 10.572.63 11.673z" fill-rule="nonzero"/></g></svg>