<?xml version="1.0" encoding="UTF-8"?>
<svg width="38px" height="38px" viewBox="0 0 38 38" version="1.1" xmlns="http://www.w3.org/2000/svg" xmlns:xlink="http://www.w3.org/1999/xlink">
    <!-- Generator: Sketch 43.2 (39069) - http://www.bohemiancoding.com/sketch -->
    <title>Oval</title>
    <desc>Created with Sketch.</desc>
    <defs></defs>
    <g id="Page-1" stroke="none" stroke-width="1" fill="none" fill-rule="evenodd">
        <circle id="Oval" fill="#ED8D21" cx="19" cy="19" r="19"></circle>
        <g id="text-document" transform="translate(12.000000, 10.000000)" fill-rule="nonzero" fill="#FFFFFF">
            <path d="M13,0 L1,0 C0.447,0 0,0.447 0,1 L0,17 C0,17.552 0.447,18 1,18 L13,18 C13.553,18 14,17.552 14,17 L14,1 C14,0.448 13.553,0 13,0 Z M12,16 L2,16 L2,2 L12,2 L12,16 Z M10,4 L4,4 L4,6 L10,6 L10,4 Z M10,12 L4,12 L4,14 L10,14 L10,12 Z M10,8 L4,8 L4,10 L10,10 L10,8 Z" id="Shape"></path>
        </g>
    </g>
</svg>