<svg width="20" height="18" viewBox="0 0 20 18" version="1.1" xmlns="http://www.w3.org/2000/svg" xmlns:xlink="http://www.w3.org/1999/xlink"><title>download</title><desc>Created with Sketch.</desc><g id="Page-1" stroke="none" stroke-width="1" fill="none" fill-rule="evenodd"><g id="download" fill-rule="nonzero" fill="#FFF"><path d="M15,6 L12,6 L12,0 L8,0 L8,6 L5,6 L10,11 L15,6 Z M19.338,12.532 C19.128,12.308 17.727,10.809 17.327,10.418 C17.062,10.159 16.683,10 16.285,10 L14.528,10 L17.592,12.994 L14.048,12.994 C13.946,12.994 13.854,13.046 13.808,13.127 L12.992,15 L7.008,15 L6.192,13.127 C6.146,13.046 6.053,12.994 5.952,12.994 L2.408,12.994 L5.471,10 L3.715,10 C3.318,10 2.939,10.159 2.673,10.418 C2.273,10.81 0.872,12.309 0.662,12.532 C0.173,13.053 -0.096,13.468 0.032,13.981 L0.593,17.055 C0.721,17.569 1.284,17.991 1.845,17.991 L18.157,17.991 C18.718,17.991 19.281,17.569 19.409,17.055 L19.97,13.981 C20.096,13.468 19.828,13.053 19.338,12.532 Z" id="Shape"/></g></g></svg>