<?xml version="1.0" encoding="UTF-8"?>
<svg width="149px" height="37px" viewBox="0 0 149 37" version="1.1" xmlns="http://www.w3.org/2000/svg" xmlns:xlink="http://www.w3.org/1999/xlink">
    <!-- Generator: Sketch 43.2 (39069) - http://www.bohemiancoding.com/sketch -->
    <title>papaya</title>
    <desc>Created with Sketch.</desc>
    <defs></defs>
    <g id="Page-1" stroke="none" stroke-width="1" fill="none" fill-rule="evenodd">
        <path d="M12.064,24.528 C11.263996,24.528 10.4800038,24.4400009 9.712,24.264 C8.94399616,24.0879991 8.3200024,23.8720013 7.84,23.616 L7.84,34.0556641 L0.784,35.04 L0.784,0.96 L6.064,0.96 L6.736,3.408 C7.66400464,2.47999536 8.74399384,1.75200264 9.976,1.224 C11.2080062,0.69599736 12.5599926,0.432 14.032,0.432 C15.5040074,0.432 16.8479939,0.70399728 18.064,1.248 C19.2800061,1.79200272 20.3039958,2.56799496 21.136,3.576 C21.9680042,4.58400504 22.6159977,5.8079928 23.08,7.248 C23.5440023,8.6880072 23.776,10.2879912 23.776,12.048 C23.776,14.0320099 23.472003,15.7999922 22.864,17.352 C22.255997,18.9040078 21.4240053,20.2079947 20.368,21.264 C19.3119947,22.3200053 18.0720071,23.1279972 16.648,23.688 C15.2239929,24.2480028 13.6960082,24.528 12.064,24.528 Z M12.016,5.712 C11.0559952,5.712 10.2080037,5.93599776 9.472,6.384 C8.73599632,6.83200224 8.19200176,7.27999776 7.84,7.728 L7.84,18.288 C8.640004,18.9920035 9.74399296,19.344 11.152,19.344 C11.7920032,19.344 12.4319968,19.2160013 13.072,18.96 C13.7120032,18.7039987 14.2799975,18.2960028 14.776,17.736 C15.2720025,17.1759972 15.6799984,16.4480045 16,15.552 C16.3200016,14.6559955 16.48,13.5520066 16.48,12.24 C16.48,10.4159909 16.0960038,8.87200632 15.328,7.608 C14.5599962,6.34399368 13.4560072,5.712 12.016,5.712 Z M28.576,2.976 C29.8880066,2.20799616 31.3679918,1.59200232 33.016,1.128 C34.6640082,0.66399768 36.3519914,0.432 38.08,0.432 C40.9280142,0.432 43.2159914,1.11999312 44.944,2.496 C46.6720086,3.87200688 47.536,6.06398496 47.536,9.072 L47.536,24 L42.112,24 L41.488,21.696 L41.296,21.696 C40.6559968,22.5280042 39.7680057,23.2079974 38.632,23.736 C37.4959943,24.2640026 36.1600077,24.528 34.624,24.528 C33.3119934,24.528 32.1680049,24.3360019 31.192,23.952 C30.2159951,23.5679981 29.4080032,23.0560032 28.768,22.416 C28.1279968,21.7759968 27.6400017,21.0160044 27.304,20.136 C26.9679983,19.2559956 26.8,18.320005 26.8,17.328 C26.8,15.9839933 27.095997,14.8320048 27.688,13.872 C28.280003,12.9119952 29.079995,12.128003 30.088,11.52 C31.096005,10.911997 32.2799932,10.4640014 33.64,10.176 C35.0000068,9.88799856 36.4479923,9.744 37.984,9.744 L40.384,9.744 L40.384,8.496 C40.384,7.63199568 40.080003,6.96800232 39.472,6.504 C38.863997,6.03999768 38.0000056,5.808 36.88,5.808 C35.9199952,5.808 34.9760046,5.95199856 34.048,6.24 C33.1199954,6.52800144 32.0960056,6.9919968 30.976,7.632 L28.576,2.976 Z M40.432,14.064 L38.848,14.112 C37.9519955,14.1440002 37.200003,14.2399992 36.592,14.4 C35.983997,14.5600008 35.4960018,14.7599988 35.128,15 C34.7599982,15.2400012 34.4960008,15.5279983 34.336,15.864 C34.1759992,16.2000017 34.096,16.5439982 34.096,16.896 C34.096,17.888005 34.391997,18.5679982 34.984,18.936 C35.576003,19.3040018 36.2559962,19.488 37.024,19.488 C37.7920038,19.488 38.4879969,19.2640022 39.112,18.816 C39.7360031,18.3679978 40.1759987,17.8720027 40.432,17.328 L40.432,14.064 Z M64,24.528 C63.199996,24.528 62.4160038,24.4400009 61.648,24.264 C60.8799962,24.0879991 60.2560024,23.8720013 59.776,23.616 L59.776,34.0698242 L52.72,35.04 L52.72,0.96 L58,0.96 L58.672,3.408 C59.6000046,2.47999536 60.6799938,1.75200264 61.912,1.224 C63.1440062,0.69599736 64.4959926,0.432 65.968,0.432 C67.4400074,0.432 68.7839939,0.70399728 70,1.248 C71.2160061,1.79200272 72.2399958,2.56799496 73.072,3.576 C73.9040042,4.58400504 74.5519977,5.8079928 75.016,7.248 C75.4800023,8.6880072 75.712,10.2879912 75.712,12.048 C75.712,14.0320099 75.408003,15.7999922 74.8,17.352 C74.191997,18.9040078 73.3600053,20.2079947 72.304,21.264 C71.2479947,22.3200053 70.0080071,23.1279972 68.584,23.688 C67.1599929,24.2480028 65.6320082,24.528 64,24.528 Z M63.952,5.712 C62.9919952,5.712 62.1440037,5.93599776 61.408,6.384 C60.6719963,6.83200224 60.1280018,7.27999776 59.776,7.728 L59.776,18.288 C60.576004,18.9920035 61.679993,19.344 63.088,19.344 C63.7280032,19.344 64.3679968,19.2160013 65.008,18.96 C65.6480032,18.7039987 66.2159975,18.2960028 66.712,17.736 C67.2080025,17.1759972 67.6159984,16.4480045 67.936,15.552 C68.2560016,14.6559955 68.416,13.5520066 68.416,12.24 C68.416,10.4159909 68.0320038,8.87200632 67.264,7.608 C66.4959962,6.34399368 65.3920072,5.712 63.952,5.712 Z M80.512,2.976 C81.8240066,2.20799616 83.3039918,1.59200232 84.952,1.128 C86.6000082,0.66399768 88.2879914,0.432 90.016,0.432 C92.8640142,0.432 95.1519914,1.11999312 96.88,2.496 C98.6080086,3.87200688 99.472,6.06398496 99.472,9.072 L99.472,24 L94.048,24 L93.424,21.696 L93.232,21.696 C92.5919968,22.5280042 91.7040057,23.2079974 90.568,23.736 C89.4319943,24.2640026 88.0960077,24.528 86.56,24.528 C85.2479934,24.528 84.1040049,24.3360019 83.128,23.952 C82.1519951,23.5679981 81.3440032,23.0560032 80.704,22.416 C80.0639968,21.7759968 79.5760017,21.0160044 79.24,20.136 C78.9039983,19.2559956 78.736,18.320005 78.736,17.328 C78.736,15.9839933 79.031997,14.8320048 79.624,13.872 C80.216003,12.9119952 81.015995,12.128003 82.024,11.52 C83.032005,10.911997 84.2159932,10.4640014 85.576,10.176 C86.9360068,9.88799856 88.3839923,9.744 89.92,9.744 L92.32,9.744 L92.32,8.496 C92.32,7.63199568 92.016003,6.96800232 91.408,6.504 C90.799997,6.03999768 89.9360056,5.808 88.816,5.808 C87.8559952,5.808 86.9120046,5.95199856 85.984,6.24 C85.0559954,6.52800144 84.0320056,6.9919968 82.912,7.632 L80.512,2.976 Z M92.368,14.064 L90.784,14.112 C89.8879955,14.1440002 89.136003,14.2399992 88.528,14.4 C87.919997,14.5600008 87.4320018,14.7599988 87.064,15 C86.6959982,15.2400012 86.4320008,15.5279983 86.272,15.864 C86.1119992,16.2000017 86.032,16.5439982 86.032,16.896 C86.032,17.888005 86.327997,18.5679982 86.92,18.936 C87.512003,19.3040018 88.1919962,19.488 88.96,19.488 C89.7280038,19.488 90.4239969,19.2640022 91.048,18.816 C91.6720031,18.3679978 92.1119987,17.8720027 92.368,17.328 L92.368,14.064 Z M101.68,0.96 L109.456,0.96 L113.248,11.232 L114.784,16.848 L114.976,16.848 L116.416,11.136 L119.728,0.96 L126.976,0.96 L118.672,24.432 C118.223998,25.7440066 117.696003,27.0239938 117.088,28.272 C116.479997,29.5200062 115.736004,30.6879946 114.856,31.776 C113.975996,32.8640054 112.912006,33.8559955 111.664,34.752 C110.415994,35.6480045 108.912009,36.3839971 107.152,36.96 L104.224,31.44 C106.112009,30.7679966 107.671994,29.8080062 108.904,28.56 C110.136006,27.3119938 110.959998,25.8720082 111.376,24.24 L111.472,23.856 L101.68,0.96 Z M130,2.976 C131.312007,2.20799616 132.791992,1.59200232 134.44,1.128 C136.088008,0.66399768 137.775991,0.432 139.504,0.432 C142.352014,0.432 144.639991,1.11999312 146.368,2.496 C148.096009,3.87200688 148.96,6.06398496 148.96,9.072 L148.96,24 L143.536,24 L142.912,21.696 L142.72,21.696 C142.079997,22.5280042 141.192006,23.2079974 140.056,23.736 C138.919994,24.2640026 137.584008,24.528 136.048,24.528 C134.735993,24.528 133.592005,24.3360019 132.616,23.952 C131.639995,23.5679981 130.832003,23.0560032 130.192,22.416 C129.551997,21.7759968 129.064002,21.0160044 128.728,20.136 C128.391998,19.2559956 128.224,18.320005 128.224,17.328 C128.224,15.9839933 128.519997,14.8320048 129.112,13.872 C129.704003,12.9119952 130.503995,12.128003 131.512,11.52 C132.520005,10.911997 133.703993,10.4640014 135.064,10.176 C136.424007,9.88799856 137.871992,9.744 139.408,9.744 L141.808,9.744 L141.808,8.496 C141.808,7.63199568 141.504003,6.96800232 140.896,6.504 C140.287997,6.03999768 139.424006,5.808 138.304,5.808 C137.343995,5.808 136.400005,5.95199856 135.472,6.24 C134.543995,6.52800144 133.520006,6.9919968 132.4,7.632 L130,2.976 Z M141.856,14.064 L140.272,14.112 C139.375996,14.1440002 138.624003,14.2399992 138.016,14.4 C137.407997,14.5600008 136.920002,14.7599988 136.552,15 C136.183998,15.2400012 135.920001,15.5279983 135.76,15.864 C135.599999,16.2000017 135.52,16.5439982 135.52,16.896 C135.52,17.888005 135.815997,18.5679982 136.408,18.936 C137.000003,19.3040018 137.679996,19.488 138.448,19.488 C139.216004,19.488 139.911997,19.2640022 140.536,18.816 C141.160003,18.3679978 141.599999,17.8720027 141.856,17.328 L141.856,14.064 Z" id="papaya" fill="#ED8D21"></path>
    </g>
</svg>