<svg height="297" viewBox="0 0 255 297" width="255" xmlns="http://www.w3.org/2000/svg"><g fill="none" fill-rule="evenodd" transform="matrix(.9945219 -.10452846 .10452846 .9945219 -4.442347 26.504739)"><path d="m42.207691 25.2823795c-22.9023438 33.7148438-63.34375 153.6875005-26.0664063 204.6757815 37.2773438 50.988281 159.6132813 54.972656 198.0429683 0 38.429688-54.972656-13.230468-171.2500002-34.308593-204.6757815-21.078125-33.42578124-114.7656253-33.71484374-137.667969 0z" fill="#fa8b49" stroke="#1d1d1d" stroke-width="23"/><path d="m205.500982 96.1045285s18.254533 67.6301655-24.943237 117.4541165c-43.197769 49.823951-134.5632231 40.134644-134.5632231 40.134644l77.0761131 16.895295 87.727701-37.17469s10.683594-23.048828 11.476563-25.007812c.792968-1.958985 7.923828-38.759766 7.923828-38.759766l-9.019531-33.164063z" fill="#de7333"/><path d="m42.207691 25.2823795c-22.9023438 33.7148438-63.34375 153.6875005-26.0664063 204.6757815 37.2773438 50.988281 159.6132813 54.972656 198.0429683 0 38.429688-54.972656-13.230468-171.2500002-34.308593-204.6757815-21.078125-33.42578124-114.7656253-33.71484374-137.667969 0z" stroke="#231639" stroke-width="23"/><circle cx="60.494522" cy="119.604528" fill="#1d1d1d" r="11.5"/><circle cx="164.494522" cy="119.604528" fill="#1d1d1d" r="11.5"/><path d="m89.4664015 149.181666s23.1171875 14.841797 46.2343745 0" stroke="#1d1d1d" stroke-linecap="round" stroke-width="12"/></g></svg>