<svg height="297" viewBox="0 0 256 297" width="256" xmlns="http://www.w3.org/2000/svg"><g fill="none" fill-rule="evenodd" transform="matrix(.9945219 -.10452846 .10452846 .9945219 -4.536364 25.710792)"><path d="m42.1992188 25.7226563c-22.9023438 33.7148437-63.34375 153.6874997-26.0664063 204.6757817 37.2773438 50.988281 159.6132815 54.972656 198.0429685 0 38.429688-54.972657-13.230468-171.2500005-34.308593-204.6757817-21.078125-33.4257813-114.7656255-33.7148438-137.6679692 0z" fill="#fa8b49" stroke="#1d1d1d" stroke-width="23"/><path d="m205.856562 96.9279028s18.254532 67.6301662-24.943237 117.4541162c-43.197769 49.823951-134.5632236 40.134644-134.5632236 40.134644l77.0761136 16.895295 87.727701-37.17469s10.683593-23.048828 11.476562-25.007812 7.923828-38.759766 7.923828-38.759766l-9.019531-33.164062z" fill="#de7333"/><path d="m42.1992188 25.7226563c-22.9023438 33.7148437-63.34375 153.6874997-26.0664063 204.6757817 37.2773438 50.988281 159.6132815 54.972656 198.0429685 0 38.429688-54.972657-13.230468-171.2500005-34.308593-204.6757817-21.078125-33.4257813-114.7656255-33.7148438-137.6679692 0z" stroke="#1d1d1d" stroke-width="23"/><circle cx="60.510956" cy="120.290943" fill="#1d1d1d" r="11.5"/><circle cx="164.510956" cy="120.290943" fill="#1d1d1d" r="11.5"/><path d="m89.0109562 144.790943s23.1171878 14.841797 46.2343748 0" stroke="#1d1d1d" stroke-linecap="round" stroke-width="12"/></g></svg>