<svg width="187" height="52" viewBox="0 0 187 52" version="1.1" xmlns="http://www.w3.org/2000/svg" xmlns:xlink="http://www.w3.org/1999/xlink"><title>logo</title><desc>Created with Sketch.</desc><g id="Page-1" stroke="none" stroke-width="1" fill="none" fill-rule="evenodd"><g id="papaya" fill="#E58C16" fill-rule="nonzero"><path d="M15.1407248,30.4942703 C14.136693,30.4942703 13.1527564,30.384866 12.1888859,30.1660541 C11.2250153,29.9472421 10.4418822,29.6787043 9.83946309,29.3604324 L9.83946309,42.3394743 L0.983946309,43.5632432 L0.983946309,1.19351351 L7.61052349,1.19351351 L8.45390604,4.23697297 C9.618583,3.08323747 10.9740057,2.17816544 12.5202148,1.52172973 C14.0664239,0.865294015 15.7632122,0.537081081 17.6106309,0.537081081 C19.4580496,0.537081081 21.1447977,0.875239862 22.6709262,1.55156757 C24.1970546,2.22789527 25.4821961,3.19264238 26.5263893,4.44583784 C27.5705825,5.69903329 28.383836,7.22074781 28.9661745,9.01102703 C29.548513,10.8013062 29.8396779,12.7904755 29.8396779,14.9785946 C29.8396779,17.4452015 29.4581514,19.6432335 28.6950872,21.5727568 C27.9320231,23.50228 26.8878456,25.1234529 25.5625235,26.4363243 C24.2372014,27.7491958 22.6809754,28.7537262 20.8937987,29.4499459 C19.106622,30.1461656 17.1889499,30.4942703 15.1407248,30.4942703 Z M15.0804832,7.10140541 C13.875645,7.10140541 12.8113872,7.37988911 11.8876779,7.93686486 C10.9639685,8.49384062 10.2812371,9.05080803 9.83946309,9.60778378 L9.83946309,22.7364324 C10.843495,23.61168 12.2290381,24.0492973 13.9961342,24.0492973 C14.7993597,24.0492973 15.6025732,23.8901638 16.4057987,23.5718919 C17.2090242,23.25362 17.9218761,22.7463819 18.5443758,22.0501622 C19.1668756,21.3539425 19.6789242,20.4488705 20.0805369,19.3349189 C20.4821497,18.2209674 20.682953,16.8484406 20.682953,15.2172973 C20.682953,12.9496103 20.2010249,11.0300619 19.2371544,9.45859459 C18.2732838,7.88712728 16.8877406,7.10140541 15.0804832,7.10140541 Z M35.8638389,3.69989189 C37.5104512,2.74507631 39.3678823,1.97924613 41.4361879,1.40237838 C43.5044935,0.825510629 45.6229691,0.537081081 47.7916779,0.537081081 C51.3660312,0.537081081 54.2375194,1.39242388 56.4062282,3.10313514 C58.574937,4.81384639 59.6592752,7.53900833 59.6592752,11.2787027 L59.6592752,29.8378378 L52.8519732,29.8378378 L52.0688322,26.9734054 L51.8278658,26.9734054 C51.0246403,28.007789 49.9101817,28.853186 48.4844564,29.5096216 C47.0587311,30.1660573 45.3820231,30.4942703 43.4542819,30.4942703 C41.8076696,30.4942703 40.3719256,30.2555699 39.1470067,29.7781622 C37.9220878,29.3007544 36.9080309,28.6642202 36.1048054,27.8685405 C35.3015799,27.0728609 34.6891297,26.1280055 34.2674362,25.0339459 C33.8457428,23.9398864 33.6348993,22.7762224 33.6348993,21.5429189 C33.6348993,19.8719917 34.0063855,18.4397898 34.7493691,17.2462703 C35.4923528,16.0527508 36.4963696,15.0780578 37.7614497,14.3221622 C39.0265298,13.5662665 40.5124747,13.009299 42.2193289,12.6512432 C43.926183,12.2931874 45.7434534,12.1141622 47.6711946,12.1141622 L50.6832752,12.1141622 L50.6832752,10.5625946 C50.6832752,9.48842706 50.3017487,8.6629218 49.5386846,8.08605405 C48.7756204,7.5091863 47.6912822,7.22075676 46.2856376,7.22075676 C45.0807993,7.22075676 43.8960595,7.39978199 42.7313826,7.75783784 C41.5667056,8.11589368 40.2815641,8.69275278 38.8759195,9.48843243 L35.8638389,3.69989189 Z M50.7435168,17.484973 L48.7555436,17.5446486 C47.6310279,17.5844327 46.6872521,17.7037828 45.9241879,17.9027027 C45.1611238,18.1016226 44.5486734,18.3502688 44.0868188,18.6486486 C43.6249642,18.9470285 43.2936386,19.305079 43.0928322,19.7228108 C42.8920258,20.1405427 42.7916242,20.568214 42.7916242,21.0058378 C42.7916242,22.2391414 43.1631103,23.0845383 43.906094,23.5420541 C44.6490776,23.9995698 45.5024919,24.2283243 46.4663624,24.2283243 C47.430233,24.2283243 48.3037277,23.9498406 49.0868725,23.3928649 C49.8700173,22.8358892 50.4222266,22.2192466 50.7435168,21.5429189 L50.7435168,17.484973 Z M80.3221477,30.4942703 C79.3181158,30.4942703 78.3341793,30.384866 77.3703087,30.1660541 C76.4064382,29.9472421 75.623305,29.6787043 75.0208859,29.3604324 L75.0208859,42.3570787 L66.1653691,43.5632432 L66.1653691,1.19351351 L72.7919463,1.19351351 L73.6353289,4.23697297 C74.8000058,3.08323747 76.1554285,2.17816544 77.7016376,1.52172973 C79.2478467,0.865294015 80.944635,0.537081081 82.7920537,0.537081081 C84.6394724,0.537081081 86.3262205,0.875239862 87.852349,1.55156757 C89.3784775,2.22789527 90.6636189,3.19264238 91.7078121,4.44583784 C92.7520053,5.69903329 93.5652589,7.22074781 94.1475973,9.01102703 C94.7299358,10.8013062 95.0211007,12.7904755 95.0211007,14.9785946 C95.0211007,17.4452015 94.6395742,19.6432335 93.8765101,21.5727568 C93.1134459,23.50228 92.0692684,25.1234529 90.7439463,26.4363243 C89.4186242,27.7491958 87.8623982,28.7537262 86.0752215,29.4499459 C84.2880448,30.1461656 82.3703727,30.4942703 80.3221477,30.4942703 Z M80.261906,7.10140541 C79.0570678,7.10140541 77.99281,7.37988911 77.0691007,7.93686486 C76.1453913,8.49384062 75.46266,9.05080803 75.0208859,9.60778378 L75.0208859,22.7364324 C76.0249178,23.61168 77.410461,24.0492973 79.177557,24.0492973 C79.9807825,24.0492973 80.783996,23.8901638 81.5872215,23.5718919 C82.390447,23.25362 83.1032989,22.7463819 83.7257987,22.0501622 C84.3482984,21.3539425 84.860347,20.4488705 85.2619597,19.3349189 C85.6635725,18.2209674 85.8643758,16.8484406 85.8643758,15.2172973 C85.8643758,12.9496103 85.3824477,11.0300619 84.4185772,9.45859459 C83.4547066,7.88712728 82.0691634,7.10140541 80.261906,7.10140541 Z M101.045262,3.69989189 C102.691874,2.74507631 104.549305,1.97924613 106.617611,1.40237838 C108.685916,0.825510629 110.804392,0.537081081 112.973101,0.537081081 C116.547454,0.537081081 119.418942,1.39242388 121.587651,3.10313514 C123.75636,4.81384639 124.840698,7.53900833 124.840698,11.2787027 L124.840698,29.8378378 L118.033396,29.8378378 L117.250255,26.9734054 L117.009289,26.9734054 C116.206063,28.007789 115.091604,28.853186 113.665879,29.5096216 C112.240154,30.1660573 110.563446,30.4942703 108.635705,30.4942703 C106.989092,30.4942703 105.553348,30.2555699 104.32843,29.7781622 C103.103511,29.3007544 102.089454,28.6642202 101.286228,27.8685405 C100.483003,27.0728609 99.8705525,26.1280055 99.4488591,25.0339459 C99.0271657,23.9398864 98.8163221,22.7762224 98.8163221,21.5429189 C98.8163221,19.8719917 99.1878083,18.4397898 99.9307919,17.2462703 C100.673776,16.0527508 101.677792,15.0780578 102.942872,14.3221622 C104.207953,13.5662665 105.693898,13.009299 107.400752,12.6512432 C109.107606,12.2931874 110.924876,12.1141622 112.852617,12.1141622 L115.864698,12.1141622 L115.864698,10.5625946 C115.864698,9.48842706 115.483172,8.6629218 114.720107,8.08605405 C113.957043,7.5091863 112.872705,7.22075676 111.46706,7.22075676 C110.262222,7.22075676 109.077482,7.39978199 107.912805,7.75783784 C106.748128,8.11589368 105.462987,8.69275278 104.057342,9.48843243 L101.045262,3.69989189 Z M115.92494,17.484973 L113.936966,17.5446486 C112.812451,17.5844327 111.868675,17.7037828 111.105611,17.9027027 C110.342547,18.1016226 109.730096,18.3502688 109.268242,18.6486486 C108.806387,18.9470285 108.475061,19.305079 108.274255,19.7228108 C108.073449,20.1405427 107.973047,20.568214 107.973047,21.0058378 C107.973047,22.2391414 108.344533,23.0845383 109.087517,23.5420541 C109.8305,23.9995698 110.683915,24.2283243 111.647785,24.2283243 C112.611656,24.2283243 113.48515,23.9498406 114.268295,23.3928649 C115.05144,22.8358892 115.603649,22.2192466 115.92494,21.5429189 L115.92494,17.484973 Z M127.611812,1.19351351 L137.370953,1.19351351 L142.13004,13.9641081 L144.057772,20.9461622 L144.298738,20.9461622 L146.105987,13.8447568 L150.262658,1.19351351 L159.359141,1.19351351 L148.937342,30.3749189 C148.375085,32.0060623 147.712433,33.5973977 146.949369,35.148973 C146.186305,36.7005482 145.252569,38.1526419 144.148134,39.5052973 C143.0437,40.8579527 141.708357,42.0912376 140.142067,43.2051892 C138.575778,44.3191407 136.688226,45.2341586 134.479356,45.9502703 L130.804617,39.0875676 C133.174132,38.2521039 135.131966,37.0586023 136.678174,35.507027 C138.224383,33.9554518 139.258521,32.1651994 139.780617,30.1362162 L139.901101,29.6588108 L127.611812,1.19351351 Z M163.154362,3.69989189 C164.800975,2.74507631 166.658406,1.97924613 168.726711,1.40237838 C170.795017,0.825510629 172.913492,0.537081081 175.082201,0.537081081 C178.656554,0.537081081 181.528042,1.39242388 183.696752,3.10313514 C185.865461,4.81384639 186.949799,7.53900833 186.949799,11.2787027 L186.949799,29.8378378 L180.142497,29.8378378 L179.359356,26.9734054 L179.118389,26.9734054 C178.315164,28.007789 177.200706,28.853186 175.77498,29.5096216 C174.349254,30.1660573 172.672547,30.4942703 170.744805,30.4942703 C169.098193,30.4942703 167.662449,30.2555699 166.43753,29.7781622 C165.212611,29.3007544 164.198554,28.6642202 163.395329,27.8685405 C162.592104,27.0728609 161.979654,26.1280055 161.55796,25.0339459 C161.136266,23.9398864 160.925423,22.7762224 160.925423,21.5429189 C160.925423,19.8719917 161.296909,18.4397898 162.039893,17.2462703 C162.782876,16.0527508 163.786893,15.0780578 165.051973,14.3221622 C166.317053,13.5662665 167.802998,13.009299 169.509852,12.6512432 C171.216707,12.2931874 173.033977,12.1141622 174.961718,12.1141622 L177.973799,12.1141622 L177.973799,10.5625946 C177.973799,9.48842706 177.592272,8.6629218 176.829208,8.08605405 C176.066144,7.5091863 174.981806,7.22075676 173.576161,7.22075676 C172.371323,7.22075676 171.186583,7.39978199 170.021906,7.75783784 C168.857229,8.11589368 167.572088,8.69275278 166.166443,9.48843243 L163.154362,3.69989189 Z M178.03404,17.484973 L176.046067,17.5446486 C174.921552,17.5844327 173.977776,17.7037828 173.214711,17.9027027 C172.451647,18.1016226 171.839197,18.3502688 171.377342,18.6486486 C170.915487,18.9470285 170.584162,19.305079 170.383356,19.7228108 C170.182549,20.1405427 170.082148,20.568214 170.082148,21.0058378 C170.082148,22.2391414 170.453634,23.0845383 171.196617,23.5420541 C171.939601,23.9995698 172.793015,24.2283243 173.756886,24.2283243 C174.720757,24.2283243 175.594251,23.9498406 176.377396,23.3928649 C177.160541,22.8358892 177.71275,22.2192466 178.03404,21.5429189 L178.03404,17.484973 Z" transform="translate(0.000000, 1.000000)"/></g></g></svg>