<?xml version="1.0" encoding="UTF-8"?>
<svg width="37px" height="37px" viewBox="0 0 37 37" version="1.1" xmlns="http://www.w3.org/2000/svg" xmlns:xlink="http://www.w3.org/1999/xlink">
    <!-- Generator: Sketch 43.2 (39069) - http://www.bohemiancoding.com/sketch -->
    <title>paper-plane</title>
    <desc>Created with Sketch.</desc>
    <defs></defs>
    <g id="Page-1" stroke="none" stroke-width="1" fill="none" fill-rule="evenodd">
        <g id="paper-plane">
            <circle id="Oval" fill="#ED8D21" cx="18.5" cy="18.5" r="18.5"></circle>
            <path d="M25.64,11.634 C25.296,11.755 8.319,17.738 7.984,17.856 C7.7,17.956 7.637,18.201 7.974,18.335 C8.375,18.496 11.77,19.856 11.77,19.856 L11.77,19.856 L14.02,20.757 C14.02,20.757 24.858,12.799 25.004,12.691 C25.152,12.583 25.322,12.786 25.215,12.902 C25.108,13.019 17.344,21.415 17.344,21.415 L17.344,21.417 L16.892,21.92 L17.491,22.242 L17.491,22.242 C17.491,22.242 22.141,24.746 22.473,24.924 C22.764,25.08 23.141,24.951 23.225,24.59 C23.324,24.164 26.07,12.329 26.131,12.065 C26.21,11.722 25.983,11.513 25.64,11.634 Z M14,26.162 C14,26.408 14.139,26.477 14.331,26.303 C14.582,26.074 17.181,23.742 17.181,23.742 L14,22.098 L14,26.162 Z" id="Shape" fill="#FFFFFF" fill-rule="nonzero"></path>
        </g>
    </g>
</svg>