<?xml version="1.0" encoding="UTF-8"?>
<svg width="240px" height="240px" viewBox="0 0 240 240" version="1.1" xmlns="http://www.w3.org/2000/svg" xmlns:xlink="http://www.w3.org/1999/xlink">
    <!-- Generator: Sketch 43.2 (39069) - http://www.bohemiancoding.com/sketch -->
    <title>Fill 1</title>
    <desc>Created with Sketch.</desc>
    <defs></defs>
    <g id="Page-1" stroke="none" stroke-width="1" fill="none" fill-rule="evenodd">
        <g id="product-hunt-logo-horizontal-black">
            <path d="M240,120 C240,186.274 186.274,240 120,240 C53.726,240 0,186.274 0,120 C0,53.726 53.726,0 120,0 C186.274,0 240,53.726 240,120" id="Fill-1" fill="#31363C"></path>
            <path d="M136,119.9996 L136,120.0006 L102,120.0006 L102,84.0006 L136,84.0006 L136,83.9996 C145.941,83.9996 154,92.0586 154,101.9996 C154,111.9406 145.941,119.9996 136,119.9996 M136,59.9996 L136,60.0006 L78,59.9996 L78,179.9996 L102,179.9996 L102,144.0006 L136,144.0006 L136,143.9996 C159.196,143.9996 178,125.1956 178,101.9996 C178,78.8036 159.196,59.9996 136,59.9996" id="Fill-3" fill="#FFFFFF"></path>
        </g>
    </g>
</svg>