<?xml version="1.0" encoding="UTF-8"?>
<svg width="38px" height="38px" viewBox="0 0 38 38" version="1.1" xmlns="http://www.w3.org/2000/svg" xmlns:xlink="http://www.w3.org/1999/xlink">
    <!-- Generator: Sketch 43.2 (39069) - http://www.bohemiancoding.com/sketch -->
    <title>Oval</title>
    <desc>Created with Sketch.</desc>
    <defs></defs>
    <g id="Page-1" stroke="none" stroke-width="1" fill="none" fill-rule="evenodd">
        <circle id="Oval" fill="#ED8D21" cx="19" cy="19" r="19"></circle>
        <g id="tools" transform="translate(9.000000, 10.000000)" fill-rule="nonzero" fill="#FFFFFF">
            <path d="M3.135,5.89 C4.068,5.165 4.842,5.665 5.875,6.861 C5.991,6.996 6.147,6.838 6.236,6.761 C6.324,6.683 7.687,5.456 7.754,5.4 C7.82,5.341 7.9,5.231 7.795,5.108 C7.688,4.985 7.301,4.483 7.052,4.157 C5.244,1.792 11.998,0.188 10.961,0.163 C10.433,0.149 8.315,0.124 7.998,0.159 C6.715,0.294 5.104,1.493 4.293,2.052 C3.232,2.778 2.836,3.204 2.771,3.263 C2.471,3.525 2.723,4.13 2.179,4.607 C1.604,5.11 1.245,4.729 0.912,5.021 C0.747,5.167 0.285,5.513 0.153,5.628 C0.02,5.745 -0.004,5.942 0.132,6.099 C0.132,6.099 1.396,7.495 1.502,7.619 C1.607,7.741 1.893,7.847 2.069,7.69 C2.246,7.534 2.701,7.137 2.777,7.067 C2.855,7.001 2.727,6.206 3.135,5.89 Z M8.843,6.407 C8.723,6.268 8.574,6.264 8.446,6.378 L7.012,7.63 C6.899,7.73 6.883,7.913 6.985,8.03 L15.279,17.469 C15.473,17.692 15.809,17.715 16.03,17.522 L17,16.709 C17.222,16.514 17.245,16.176 17.052,15.951 L8.843,6.407 Z M19.902,2.39 C19.828,1.896 19.572,1.999 19.439,2.208 C19.306,2.419 18.718,3.31 18.476,3.714 C18.236,4.114 17.644,4.905 16.542,4.124 C15.394,3.313 15.793,2.747 15.993,2.366 C16.194,1.983 16.811,0.909 16.9,0.776 C16.989,0.641 16.885,0.249 16.529,0.413 C16.172,0.577 14.006,1.438 13.706,2.673 C13.399,3.929 13.963,5.052 12.856,6.167 L11.513,7.567 L12.862,9.133 L14.516,7.563 C14.91,7.167 15.752,6.782 16.514,6.956 C18.147,7.325 19.038,6.712 19.575,5.698 C20.057,4.792 19.977,2.884 19.902,2.39 Z M2.739,16.053 C2.531,16.262 2.531,16.602 2.739,16.811 L3.69,17.741 C3.898,17.95 4.228,17.862 4.436,17.653 L9.343,12.829 L7.84,11.115 L2.739,16.053 Z" id="Shape"></path>
        </g>
    </g>
</svg>