<?xml version="1.0" encoding="UTF-8"?>
<svg width="1621px" height="341px" viewBox="0 0 1621 341" version="1.1" xmlns="http://www.w3.org/2000/svg" xmlns:xlink="http://www.w3.org/1999/xlink">
    <!-- Generator: Sketch 43.2 (39069) - http://www.bohemiancoding.com/sketch -->
    <title>Artboard Copy 2</title>
    <desc>Created with Sketch.</desc>
    <defs></defs>
    <g id="Page-1" stroke="none" stroke-width="1" fill="none" fill-rule="evenodd">
        <g id="Artboard-Copy-2">
            <g id="Group" transform="translate(124.588539, 151.189418) rotate(-6.000000) translate(-124.588539, -151.189418) translate(9.088539, 15.689418)">
                <path d="M42.207691,25.2823795 C19.3053472,58.9972233 -21.136059,178.96988 16.1412847,229.958161 C53.4186285,280.946442 175.754566,284.930817 214.184253,229.958161 C252.613941,174.985505 200.953785,58.7081608 179.87566,25.2823795 C158.797535,-8.14340174 65.1100347,-8.43246424 42.207691,25.2823795 Z" id="Path" stroke="#1D1D1D" stroke-width="23" fill="#FA8B49"></path>
                <path d="M205.500982,96.1045285 C205.500982,96.1045285 223.755515,163.734694 180.557745,213.558645 C137.359976,263.382596 45.9945219,253.693289 45.9945219,253.693289 L123.070635,270.588584 L210.798336,233.413894 C210.798336,233.413894 221.48193,210.365066 222.274899,208.406082 C223.067867,206.447097 230.198727,169.646316 230.198727,169.646316 L221.179196,136.482253 L205.500982,96.1045285 Z" id="Path-3" fill="#DE7333"></path>
                <path d="M42.207691,25.2823795 C19.3053472,58.9972233 -21.136059,178.96988 16.1412847,229.958161 C53.4186285,280.946442 175.754566,284.930817 214.184253,229.958161 C252.613941,174.985505 200.953785,58.7081608 179.87566,25.2823795 C158.797535,-8.14340174 65.1100347,-8.43246424 42.207691,25.2823795 Z" id="Path-Copy" stroke="#231639" stroke-width="23"></path>
                <circle id="Oval" fill="#1D1D1D" cx="60.4945219" cy="119.604528" r="11.5"></circle>
                <circle id="Oval" fill="#1D1D1D" cx="164.494522" cy="119.604528" r="11.5"></circle>
                <path d="M89.4664015,149.181666 C89.4664015,149.181666 112.583589,164.023463 135.700776,149.181666" id="Path-2" stroke="#1D1D1D" stroke-width="12" stroke-linecap="round"></path>
            </g>
            <text id="Papaya" font-family="Gotham-Bold, Gotham" font-size="340" font-weight="bold" fill="#24163A">
                <tspan x="385.12" y="276">Papaya</tspan>
            </text>
        </g>
    </g>
</svg>