<svg height="341" width="1621" xmlns="http://www.w3.org/2000/svg"><g fill="none" fill-rule="evenodd"><g transform="rotate(-6 269.73 56.635)"><path d="M42.208 25.282C19.305 58.997-21.136 178.97 16.14 229.958c37.278 50.988 159.614 54.973 198.043 0 38.43-54.972-13.23-171.25-34.308-204.676-21.078-33.425-114.766-33.714-137.668 0z" fill="#fa8b49" stroke="#1d1d1d" stroke-width="23"/><path d="M205.501 96.105s18.255 67.63-24.943 117.454-134.563 40.134-134.563 40.134l77.076 16.896 87.727-37.175s10.684-23.049 11.477-25.008c.793-1.959 7.924-38.76 7.924-38.76l-9.02-33.164z" fill="#de7333"/><path d="M42.208 25.282C19.305 58.997-21.136 178.97 16.14 229.958c37.278 50.988 159.614 54.973 198.043 0 38.43-54.972-13.23-171.25-34.308-204.676-21.078-33.425-114.766-33.714-137.668 0z" stroke="#231639" stroke-width="23"/><circle cx="60.495" cy="119.605" fill="#1d1d1d" r="11.5"/><circle cx="164.495" cy="119.605" fill="#1d1d1d" r="11.5"/><path d="M89.466 149.182s23.118 14.841 46.235 0" stroke="#1d1d1d" stroke-linecap="round" stroke-width="12"/></g><path d="M413.68 272V34h97.24c56.78 0 91.12 33.66 91.12 82.28v.68c0 55.08-42.84 83.64-96.22 83.64h-39.78V272zm52.36-117.98h41.48c26.18 0 41.48-15.64 41.48-36.04v-.68c0-23.46-16.32-36.04-42.5-36.04h-40.46zm217.6 121.38c-34.34 0-62.56-19.72-62.56-55.76v-.68c0-39.78 30.26-58.14 73.44-58.14 18.36 0 31.62 3.06 44.54 7.48v-3.06c0-21.42-13.26-33.32-39.1-33.32-19.72 0-33.66 3.74-50.32 9.86l-12.92-39.44c20.06-8.84 39.78-14.62 70.72-14.62 28.22 0 48.62 7.48 61.54 20.4 13.6 13.6 19.72 33.66 19.72 58.14V272h-49.98v-19.72c-12.58 13.94-29.92 23.12-55.08 23.12zm15.64-35.7c24.14 0 40.46-13.26 40.46-31.96v-9.18c-8.84-4.08-20.4-6.8-32.98-6.8-22.1 0-35.7 8.84-35.7 25.16v.68c0 13.94 11.56 22.1 28.22 22.1zm133.96 86.7V89.76h51.68v26.18c12.58-17 29.92-29.58 56.78-29.58 42.5 0 82.96 33.32 82.96 94.18v.68c0 60.86-39.78 94.18-82.96 94.18-27.54 0-44.54-12.58-56.78-27.2v78.2zm95.2-94.86c24.14 0 44.54-19.72 44.54-50.32v-.68c0-30.26-20.4-50.32-44.54-50.32s-44.2 20.06-44.2 50.32v.68c0 30.26 20.06 50.32 44.2 50.32zm185.98 43.86c-34.34 0-62.56-19.72-62.56-55.76v-.68c0-39.78 30.26-58.14 73.44-58.14 18.36 0 31.62 3.06 44.54 7.48v-3.06c0-21.42-13.26-33.32-39.1-33.32-19.72 0-33.66 3.74-50.32 9.86l-12.92-39.44c20.06-8.84 39.78-14.62 70.72-14.62 28.22 0 48.62 7.48 61.54 20.4 13.6 13.6 19.72 33.66 19.72 58.14V272h-49.98v-19.72c-12.58 13.94-29.92 23.12-55.08 23.12zm15.64-35.7c24.14 0 40.46-13.26 40.46-31.96v-9.18c-8.84-4.08-20.4-6.8-32.98-6.8-22.1 0-35.7 8.84-35.7 25.16v.68c0 13.94 11.56 22.1 28.22 22.1zm207.06-25.84l-41.48-124.1h-54.74l71.4 182.92c-4.42 9.18-9.18 11.9-18.02 11.9-6.8 0-15.3-3.06-22.1-7.14l-17.34 37.4c13.26 7.82 27.2 12.58 45.9 12.58 30.94 0 45.9-13.94 59.84-51l70.04-186.66h-53.72zm167.28 61.54c-34.34 0-62.56-19.72-62.56-55.76v-.68c0-39.78 30.26-58.14 73.44-58.14 18.36 0 31.62 3.06 44.54 7.48v-3.06c0-21.42-13.26-33.32-39.1-33.32-19.72 0-33.66 3.74-50.32 9.86l-12.92-39.44c20.06-8.84 39.78-14.62 70.72-14.62 28.22 0 48.62 7.48 61.54 20.4 13.6 13.6 19.72 33.66 19.72 58.14V272h-49.98v-19.72c-12.58 13.94-29.92 23.12-55.08 23.12zm15.64-35.7c24.14 0 40.46-13.26 40.46-31.96v-9.18c-8.84-4.08-20.4-6.8-32.98-6.8-22.1 0-35.7 8.84-35.7 25.16v.68c0 13.94 11.56 22.1 28.22 22.1z" fill="#24163a"/></g></svg>