<svg height="297" width="255" xmlns="http://www.w3.org/2000/svg"><g fill="none" fill-rule="evenodd" transform="rotate(-6 250.65 55.635)"><path d="M42.208 25.282C19.305 58.997-21.136 178.97 16.14 229.958c37.278 50.988 159.614 54.973 198.043 0 38.43-54.972-13.23-171.25-34.308-204.676-21.078-33.425-114.766-33.714-137.668 0z" fill="#fa8b49" stroke="#1d1d1d" stroke-width="23"/><path d="M205.501 96.105s18.255 67.63-24.943 117.454-134.563 40.134-134.563 40.134l77.076 16.896 87.727-37.175s10.684-23.049 11.477-25.008c.793-1.959 7.924-38.76 7.924-38.76l-9.02-33.164z" fill="#de7333"/><path d="M42.208 25.282C19.305 58.997-21.136 178.97 16.14 229.958c37.278 50.988 159.614 54.973 198.043 0 38.43-54.972-13.23-171.25-34.308-204.676-21.078-33.425-114.766-33.714-137.668 0z" stroke="#231639" stroke-width="23"/><circle cx="60.495" cy="119.605" fill="#1d1d1d" r="11.5"/><circle cx="164.495" cy="119.605" fill="#1d1d1d" r="11.5"/><path d="M89.466 149.182s23.118 14.841 46.235 0" stroke="#1d1d1d" stroke-linecap="round" stroke-width="12"/></g></svg>